<?xml version="1.0" encoding="UTF-8" standalone="no"?>
<!DOCTYPE svg PUBLIC "-//W3C//DTD SVG 1.1//EN"
 "http://www.w3.org/Graphics/SVG/1.1/DTD/svg11.dtd">
<!-- Generated by graphviz version 2.40.1 (20161225.0304)
 -->
<!-- Title: EvidenceStream Pages: 1 -->
<svg width="227pt" height="332pt"
 viewBox="0.00 0.00 226.50 332.00" xmlns="http://www.w3.org/2000/svg" xmlns:xlink="http://www.w3.org/1999/xlink">
<g id="graph0" class="graph" transform="scale(1 1) rotate(0) translate(4 328)">
<title>EvidenceStream</title>
<polygon fill="#ffffff" stroke="transparent" points="-4,4 -4,-328 222.5,-328 222.5,4 -4,4"/>
<!-- A -->
<g id="node1" class="node">
<title>A</title>
<path fill="#d3d3d3" stroke="#000000" d="M174.5,-324C174.5,-324 82.5,-324 82.5,-324 76.5,-324 70.5,-318 70.5,-312 70.5,-312 70.5,-300 70.5,-300 70.5,-294 76.5,-288 82.5,-288 82.5,-288 174.5,-288 174.5,-288 180.5,-288 186.5,-294 186.5,-300 186.5,-300 186.5,-312 186.5,-312 186.5,-318 180.5,-324 174.5,-324"/>
<text text-anchor="middle" x="128.5" y="-302.3" font-family="Times,serif" font-size="14.00" fill="#000000">Evidence Capture</text>
</g>
<!-- B -->
<g id="node2" class="node">
<title>B</title>
<path fill="#00f5ff" stroke="#000000" d="M137,-252C137,-252 24,-252 24,-252 18,-252 12,-246 12,-240 12,-240 12,-228 12,-228 12,-222 18,-216 24,-216 24,-216 137,-216 137,-216 143,-216 149,-222 149,-228 149,-228 149,-240 149,-240 149,-246 143,-252 137,-252"/>
<text text-anchor="middle" x="80.5" y="-230.3" font-family="Times,serif" font-size="14.00" fill="#000000">Evidence Preparation</text>
</g>
<!-- A&#45;&gt;B -->
<g id="edge1" class="edge">
<title>A&#45;&gt;B</title>
<path fill="none" stroke="#000000" d="M116.3876,-287.8314C110.9719,-279.7079 104.4758,-269.9637 98.5079,-261.0118"/>
<polygon fill="#000000" stroke="#000000" points="101.2347,-258.7923 92.7755,-252.4133 95.4104,-262.6753 101.2347,-258.7923"/>
</g>
<!-- C -->
<g id="node3" class="node">
<title>C</title>
<path fill="#00e5ee" stroke="#000000" d="M138,-180C138,-180 15,-180 15,-180 9,-180 3,-174 3,-168 3,-168 3,-156 3,-156 3,-150 9,-144 15,-144 15,-144 138,-144 138,-144 144,-144 150,-150 150,-156 150,-156 150,-168 150,-168 150,-174 144,-180 138,-180"/>
<text text-anchor="middle" x="76.5" y="-158.3" font-family="Times,serif" font-size="14.00" fill="#000000">Evidence Identification</text>
</g>
<!-- B&#45;&gt;C -->
<g id="edge2" class="edge">
<title>B&#45;&gt;C</title>
<path fill="none" stroke="#000000" d="M79.4906,-215.8314C79.0628,-208.131 78.5541,-198.9743 78.0787,-190.4166"/>
<polygon fill="#000000" stroke="#000000" points="81.5724,-190.2037 77.523,-180.4133 74.5831,-190.592 81.5724,-190.2037"/>
</g>
<!-- D -->
<g id="node4" class="node">
<title>D</title>
<path fill="#00c5cd" stroke="#000000" d="M139,-108C139,-108 12,-108 12,-108 6,-108 0,-102 0,-96 0,-96 0,-84 0,-84 0,-78 6,-72 12,-72 12,-72 139,-72 139,-72 145,-72 151,-78 151,-84 151,-84 151,-96 151,-96 151,-102 145,-108 139,-108"/>
<text text-anchor="middle" x="75.5" y="-86.3" font-family="Times,serif" font-size="14.00" fill="#000000">Evidence Accumulation</text>
</g>
<!-- C&#45;&gt;D -->
<g id="edge3" class="edge">
<title>C&#45;&gt;D</title>
<path fill="none" stroke="#000000" d="M76.2477,-143.8314C76.1407,-136.131 76.0135,-126.9743 75.8947,-118.4166"/>
<polygon fill="#000000" stroke="#000000" points="79.3944,-118.3637 75.7557,-108.4133 72.3951,-118.4609 79.3944,-118.3637"/>
</g>
<!-- E -->
<g id="node5" class="node">
<title>E</title>
<path fill="#00868b" stroke="#000000" d="M206.5,-36C206.5,-36 48.5,-36 48.5,-36 42.5,-36 36.5,-30 36.5,-24 36.5,-24 36.5,-12 36.5,-12 36.5,-6 42.5,0 48.5,0 48.5,0 206.5,0 206.5,0 212.5,0 218.5,-6 218.5,-12 218.5,-12 218.5,-24 218.5,-24 218.5,-30 212.5,-36 206.5,-36"/>
<text text-anchor="middle" x="127.5" y="-14.3" font-family="Times,serif" font-size="14.00" fill="#000000">Evidence&#45;Centered Decisions</text>
</g>
<!-- D&#45;&gt;E -->
<g id="edge4" class="edge">
<title>D&#45;&gt;E</title>
<path fill="none" stroke="#000000" d="M88.6218,-71.8314C94.5499,-63.6232 101.6729,-53.7606 108.1933,-44.7323"/>
<polygon fill="#000000" stroke="#000000" points="111.184,-46.5693 114.2015,-36.4133 105.5092,-42.4708 111.184,-46.5693"/>
</g>
<!-- E&#45;&gt;A -->
<g id="edge5" class="edge">
<title>E&#45;&gt;A</title>
<path fill="none" stroke="#000000" stroke-dasharray="5,2" d="M141.7359,-36.3577C148.5539,-46.3128 155.9862,-59.1778 159.5,-72 180.6453,-149.16 177.5541,-174.5492 157.5,-252 155.0969,-261.2812 150.7934,-270.7178 146.2249,-279.051"/>
<polygon fill="#000000" stroke="#000000" points="143.0638,-277.5234 141.0413,-287.9235 149.1079,-281.0546 143.0638,-277.5234"/>
</g>
</g>
</svg>
