<?xml version="1.0" encoding="UTF-8" standalone="no"?>
<!DOCTYPE svg PUBLIC "-//W3C//DTD SVG 1.1//EN"
 "http://www.w3.org/Graphics/SVG/1.1/DTD/svg11.dtd">
<!-- Generated by graphviz version 2.40.1 (20161225.0304)
 -->
<!-- Title: EvidenceStream Pages: 1 -->
<svg width="95pt" height="332pt"
 viewBox="0.00 0.00 94.50 332.00" xmlns="http://www.w3.org/2000/svg" xmlns:xlink="http://www.w3.org/1999/xlink">
<g id="graph0" class="graph" transform="scale(1 1) rotate(0) translate(4 328)">
<title>EvidenceStream</title>
<polygon fill="#ffffff" stroke="transparent" points="-4,4 -4,-328 90.5,-328 90.5,4 -4,4"/>
<!-- A -->
<g id="node1" class="node">
<title>A</title>
<path fill="#d3d3d3" stroke="#000000" d="M69,-324C69,-324 39,-324 39,-324 33,-324 27,-318 27,-312 27,-312 27,-300 27,-300 27,-294 33,-288 39,-288 39,-288 69,-288 69,-288 75,-288 81,-294 81,-300 81,-300 81,-312 81,-312 81,-318 75,-324 69,-324"/>
<text text-anchor="middle" x="54" y="-299.8" font-family="Times,serif" font-size="24.00" fill="#000000">EC</text>
</g>
<!-- B -->
<g id="node2" class="node">
<title>B</title>
<path fill="#00f5ff" stroke="#000000" d="M42,-252C42,-252 12,-252 12,-252 6,-252 0,-246 0,-240 0,-240 0,-228 0,-228 0,-222 6,-216 12,-216 12,-216 42,-216 42,-216 48,-216 54,-222 54,-228 54,-228 54,-240 54,-240 54,-246 48,-252 42,-252"/>
<text text-anchor="middle" x="27" y="-227.8" font-family="Times,serif" font-size="24.00" fill="#000000">EP</text>
</g>
<!-- A&#45;&gt;B -->
<g id="edge1" class="edge">
<title>A&#45;&gt;B</title>
<path fill="none" stroke="#000000" d="M47.1868,-287.8314C44.2356,-279.9617 40.7142,-270.5712 37.445,-261.8533"/>
<polygon fill="#000000" stroke="#000000" points="40.6934,-260.5476 33.905,-252.4133 34.1391,-263.0055 40.6934,-260.5476"/>
</g>
<!-- C -->
<g id="node3" class="node">
<title>C</title>
<path fill="#00e5ee" stroke="#000000" d="M42,-180C42,-180 12,-180 12,-180 6,-180 0,-174 0,-168 0,-168 0,-156 0,-156 0,-150 6,-144 12,-144 12,-144 42,-144 42,-144 48,-144 54,-150 54,-156 54,-156 54,-168 54,-168 54,-174 48,-180 42,-180"/>
<text text-anchor="middle" x="27" y="-155.8" font-family="Times,serif" font-size="24.00" fill="#000000">EI</text>
</g>
<!-- B&#45;&gt;C -->
<g id="edge2" class="edge">
<title>B&#45;&gt;C</title>
<path fill="none" stroke="#000000" d="M27,-215.8314C27,-208.131 27,-198.9743 27,-190.4166"/>
<polygon fill="#000000" stroke="#000000" points="30.5001,-190.4132 27,-180.4133 23.5001,-190.4133 30.5001,-190.4132"/>
</g>
<!-- D -->
<g id="node4" class="node">
<title>D</title>
<path fill="#00c5cd" stroke="#000000" d="M42,-108C42,-108 12,-108 12,-108 6,-108 0,-102 0,-96 0,-96 0,-84 0,-84 0,-78 6,-72 12,-72 12,-72 42,-72 42,-72 48,-72 54,-78 54,-84 54,-84 54,-96 54,-96 54,-102 48,-108 42,-108"/>
<text text-anchor="middle" x="27" y="-83.8" font-family="Times,serif" font-size="24.00" fill="#000000">EA</text>
</g>
<!-- C&#45;&gt;D -->
<g id="edge3" class="edge">
<title>C&#45;&gt;D</title>
<path fill="none" stroke="#000000" d="M27,-143.8314C27,-136.131 27,-126.9743 27,-118.4166"/>
<polygon fill="#000000" stroke="#000000" points="30.5001,-118.4132 27,-108.4133 23.5001,-118.4133 30.5001,-118.4132"/>
</g>
<!-- E -->
<g id="node5" class="node">
<title>E</title>
<path fill="#00868b" stroke="#000000" d="M74.5,-36C74.5,-36 33.5,-36 33.5,-36 27.5,-36 21.5,-30 21.5,-24 21.5,-24 21.5,-12 21.5,-12 21.5,-6 27.5,0 33.5,0 33.5,0 74.5,0 74.5,0 80.5,0 86.5,-6 86.5,-12 86.5,-12 86.5,-24 86.5,-24 86.5,-30 80.5,-36 74.5,-36"/>
<text text-anchor="middle" x="54" y="-11.8" font-family="Times,serif" font-size="24.00" fill="#000000">ECD</text>
</g>
<!-- D&#45;&gt;E -->
<g id="edge4" class="edge">
<title>D&#45;&gt;E</title>
<path fill="none" stroke="#000000" d="M33.8132,-71.8314C36.7644,-63.9617 40.2858,-54.5712 43.555,-45.8533"/>
<polygon fill="#000000" stroke="#000000" points="46.8609,-47.0055 47.095,-36.4133 40.3066,-44.5476 46.8609,-47.0055"/>
</g>
<!-- E&#45;&gt;A -->
<g id="edge5" class="edge">
<title>E&#45;&gt;A</title>
<path fill="none" stroke="#000000" stroke-dasharray="5,2" d="M57.8413,-36.3999C59.8166,-46.7975 62.0123,-60.0654 63,-72 69.5984,-151.7274 69.5984,-172.2726 63,-252 62.3055,-260.3915 61.0138,-269.4422 59.6214,-277.6908"/>
<polygon fill="#000000" stroke="#000000" points="56.1647,-277.1388 57.8413,-287.6001 63.0544,-278.3765 56.1647,-277.1388"/>
</g>
</g>
</svg>
