<?xml version="1.0" encoding="UTF-8" standalone="no"?>
<!DOCTYPE svg PUBLIC "-//W3C//DTD SVG 1.1//EN"
 "http://www.w3.org/Graphics/SVG/1.1/DTD/svg11.dtd">
<!-- Generated by graphviz version 2.40.1 (20161225.0304)
 -->
<!-- Title: EvidenceStream Pages: 1 -->
<svg width="156pt" height="342pt"
 viewBox="0.00 0.00 156.00 342.00" xmlns="http://www.w3.org/2000/svg" xmlns:xlink="http://www.w3.org/1999/xlink">
<g id="graph0" class="graph" transform="scale(1 1) rotate(0) translate(4 338)">
<title>EvidenceStream</title>
<polygon fill="#ffffff" stroke="transparent" points="-4,4 -4,-338 152,-338 152,4 -4,4"/>
<!-- A -->
<g id="node1" class="node">
<title>A</title>
<path fill="#e5e5e5" stroke="#000000" d="M109.5,-334C109.5,-334 64.5,-334 64.5,-334 58.5,-334 52.5,-328 52.5,-322 52.5,-322 52.5,-308 52.5,-308 52.5,-302 58.5,-296 64.5,-296 64.5,-296 109.5,-296 109.5,-296 115.5,-296 121.5,-302 121.5,-308 121.5,-308 121.5,-322 121.5,-322 121.5,-328 115.5,-334 109.5,-334"/>
<text text-anchor="middle" x="87" y="-318.8" font-family="Times,serif" font-size="14.00" fill="#000000">Evidence</text>
<text text-anchor="middle" x="87" y="-303.8" font-family="Times,serif" font-size="14.00" fill="#000000">Capture</text>
</g>
<!-- B -->
<g id="node2" class="node">
<title>B</title>
<path fill="#cccccc" stroke="#000000" d="M81.5,-260C81.5,-260 24.5,-260 24.5,-260 18.5,-260 12.5,-254 12.5,-248 12.5,-248 12.5,-234 12.5,-234 12.5,-228 18.5,-222 24.5,-222 24.5,-222 81.5,-222 81.5,-222 87.5,-222 93.5,-228 93.5,-234 93.5,-234 93.5,-248 93.5,-248 93.5,-254 87.5,-260 81.5,-260"/>
<text text-anchor="middle" x="53" y="-244.8" font-family="Times,serif" font-size="14.00" fill="#000000">Evidence</text>
<text text-anchor="middle" x="53" y="-229.8" font-family="Times,serif" font-size="14.00" fill="#000000">Preparation</text>
</g>
<!-- A&#45;&gt;B -->
<g id="edge1" class="edge">
<title>A&#45;&gt;B</title>
<path fill="none" stroke="#000000" d="M78.2442,-295.9432C74.5451,-287.8923 70.159,-278.346 66.0891,-269.4879"/>
<polygon fill="#000000" stroke="#000000" points="69.1998,-267.875 61.8443,-260.2495 62.839,-270.7975 69.1998,-267.875"/>
</g>
<!-- C -->
<g id="node3" class="node">
<title>C</title>
<path fill="#b3b3b3" stroke="#000000" d="M82.5,-186C82.5,-186 15.5,-186 15.5,-186 9.5,-186 3.5,-180 3.5,-174 3.5,-174 3.5,-160 3.5,-160 3.5,-154 9.5,-148 15.5,-148 15.5,-148 82.5,-148 82.5,-148 88.5,-148 94.5,-154 94.5,-160 94.5,-160 94.5,-174 94.5,-174 94.5,-180 88.5,-186 82.5,-186"/>
<text text-anchor="middle" x="49" y="-170.8" font-family="Times,serif" font-size="14.00" fill="#000000">Evidence</text>
<text text-anchor="middle" x="49" y="-155.8" font-family="Times,serif" font-size="14.00" fill="#000000">Identification</text>
</g>
<!-- B&#45;&gt;C -->
<g id="edge2" class="edge">
<title>B&#45;&gt;C</title>
<path fill="none" stroke="#000000" d="M51.9699,-221.9432C51.5486,-214.1493 51.0516,-204.9538 50.5858,-196.3381"/>
<polygon fill="#000000" stroke="#000000" points="54.0753,-196.0459 50.0405,-186.2495 47.0855,-196.4238 54.0753,-196.0459"/>
</g>
<!-- D -->
<g id="node4" class="node">
<title>D</title>
<path fill="#999999" stroke="#000000" d="M84,-112C84,-112 12,-112 12,-112 6,-112 0,-106 0,-100 0,-100 0,-86 0,-86 0,-80 6,-74 12,-74 12,-74 84,-74 84,-74 90,-74 96,-80 96,-86 96,-86 96,-100 96,-100 96,-106 90,-112 84,-112"/>
<text text-anchor="middle" x="48" y="-96.8" font-family="Times,serif" font-size="14.00" fill="#000000">Evidence</text>
<text text-anchor="middle" x="48" y="-81.8" font-family="Times,serif" font-size="14.00" fill="#000000">Accumulation</text>
</g>
<!-- C&#45;&gt;D -->
<g id="edge3" class="edge">
<title>C&#45;&gt;D</title>
<path fill="none" stroke="#000000" d="M48.7425,-147.9432C48.6372,-140.1493 48.5129,-130.9538 48.3965,-122.3381"/>
<polygon fill="#000000" stroke="#000000" points="51.895,-122.2012 48.2601,-112.2495 44.8957,-122.2959 51.895,-122.2012"/>
</g>
<!-- E -->
<g id="node5" class="node">
<title>E</title>
<path fill="#7f7f7f" stroke="#000000" d="M136,-38C136,-38 36,-38 36,-38 30,-38 24,-32 24,-26 24,-26 24,-12 24,-12 24,-6 30,0 36,0 36,0 136,0 136,0 142,0 148,-6 148,-12 148,-12 148,-26 148,-26 148,-32 142,-38 136,-38"/>
<text text-anchor="middle" x="86" y="-22.8" font-family="Times,serif" font-size="14.00" fill="#000000">Evidence&#45;Centered</text>
<text text-anchor="middle" x="86" y="-7.8" font-family="Times,serif" font-size="14.00" fill="#000000">Decisions</text>
</g>
<!-- D&#45;&gt;E -->
<g id="edge4" class="edge">
<title>D&#45;&gt;E</title>
<path fill="none" stroke="#000000" d="M57.7859,-73.9432C61.9641,-65.8067 66.9267,-56.1427 71.5161,-47.2055"/>
<polygon fill="#000000" stroke="#000000" points="74.6605,-48.744 76.1151,-38.2495 68.4336,-45.5463 74.6605,-48.744"/>
</g>
<!-- E&#45;&gt;A -->
<g id="edge5" class="edge">
<title>E&#45;&gt;A</title>
<path fill="none" stroke="#000000" stroke-dasharray="5,2" d="M94.3907,-38.1877C98.4765,-48.5701 102.943,-61.7456 105,-74 118.6868,-155.5367 113.8039,-178.1695 102,-260 100.7543,-268.6358 98.5878,-277.846 96.2824,-286.211"/>
<polygon fill="#000000" stroke="#000000" points="92.8965,-285.3197 93.4539,-295.8999 99.6161,-287.2814 92.8965,-285.3197"/>
</g>
</g>
</svg>
